name C:\Users\antoi\Documents\MyRepositories\upper-imu-dc\Results\main_tracking\Case_70\ABD01_linearAccelerations_groundFrame.mot
datacolumns 4
datarows 141
range 6.31000000 7.71000000
endheader 
time	radius_imu_x	radius_imu_y	radius_imu_z	
          6.31000000	          0.13099803	          9.60949087	         -0.09294512	
          6.32000000	          0.08386649	          9.61234774	         -0.08910596	
          6.33000000	          0.03199995	          9.61470956	         -0.08111741	
          6.34000000	         -0.02417357	          9.61661812	         -0.06885519	
          6.35000000	         -0.08414001	          9.61809288	         -0.05227157	
          6.36000000	         -0.14725002	          9.61916084	         -0.03147362	
          6.37000000	         -0.21264432	          9.61985921	         -0.00675955	
          6.38000000	         -0.27922465	          9.62026855	          0.02132901	
          6.39000000	         -0.34561589	          9.62054803	          0.05198451	
          6.40000000	         -0.41036591	          9.62095884	          0.08418739	
          6.41000000	         -0.47196129	          9.62188233	          0.11670077	
          6.42000000	         -0.52862866	          9.62363047	          0.14843469	
          6.43000000	         -0.57939225	          9.62644789	          0.17852206	
          6.44000000	         -0.62371590	          9.63044320	          0.20634294	
          6.45000000	         -0.66107033	          9.63550377	          0.23162682	
          6.46000000	         -0.69113536	          9.64135399	          0.25443399	
          6.47000000	         -0.71367852	          9.64770145	          0.27483437	
          6.48000000	         -0.72838512	          9.65431851	          0.29271387	
          6.49000000	         -0.73489549	          9.66109356	          0.30766577	
          6.50000000	         -0.73259039	          9.66793099	          0.31920649	
          6.51000000	         -0.72085914	          9.67479195	          0.32673976	
          6.52000000	         -0.69965034	          9.68169827	          0.32966181	
          6.53000000	         -0.66937572	          9.68862094	          0.32764255	
          6.54000000	         -0.63070702	          9.69535203	          0.32088195	
          6.55000000	         -0.58463329	          9.70161045	          0.30988463	
          6.56000000	         -0.53228813	          9.70702443	          0.29553532	
          6.57000000	         -0.47489738	          9.71112106	          0.27901719	
          6.58000000	         -0.41357628	          9.71349182	          0.26168548	
          6.59000000	         -0.34934765	          9.71381076	          0.24489069	
          6.60000000	         -0.28318347	          9.71189785	          0.22984581	
          6.61000000	         -0.21626530	          9.70776848	          0.21750995	
          6.62000000	         -0.15003286	          9.70162813	          0.20844617	
          6.63000000	         -0.08601632	          9.69381856	          0.20284854	
          6.64000000	         -0.02514403	          9.68461398	          0.20092448	
          6.65000000	          0.03080875	          9.67447399	          0.20251118	
          6.66000000	          0.08026720	          9.66389791	          0.20719335	
          6.67000000	          0.12189372	          9.65326084	          0.21488770	
          6.68000000	          0.15473077	          9.64302994	          0.22493588	
          6.69000000	          0.17826369	          9.63350714	          0.23719831	
          6.70000000	          0.19215170	          9.62499363	          0.25134820	
          6.71000000	          0.19646335	          9.61781395	          0.26705297	
          6.72000000	          0.19167563	          9.61226841	          0.28406141	
          6.73000000	          0.17861279	          9.60862030	          0.30228442	
          6.74000000	          0.15848640	          9.60704945	          0.32177137	
          6.75000000	          0.13270863	          9.60765583	          0.34253043	
          6.76000000	          0.10274999	          9.61037940	          0.36477045	
          6.77000000	          0.07028061	          9.61503736	          0.38865556	
          6.78000000	          0.03699398	          9.62139020	          0.41414421	
          6.79000000	          0.00453324	          9.62918744	          0.44085207	
          6.80000000	         -0.02563638	          9.63816437	          0.46814770	
          6.81000000	         -0.05234436	          9.64804159	          0.49520931	
          6.82000000	         -0.07488435	          9.65854323	          0.52108187	
          6.83000000	         -0.09305856	          9.66941542	          0.54492786	
          6.84000000	         -0.10714891	          9.68038938	          0.56622774	
          6.85000000	         -0.11794804	          9.69117961	          0.58507890	
          6.86000000	         -0.12637077	          9.70152841	          0.60191377	
          6.87000000	         -0.13318174	          9.71120461	          0.61701155	
          6.88000000	         -0.13922441	          9.71999115	          0.63119194	
          6.89000000	         -0.14500031	          9.72772937	          0.64528125	
          6.90000000	         -0.15067273	          9.73436434	          0.65967174	
          6.91000000	         -0.15619322	          9.73995398	          0.67438332	
          6.92000000	         -0.16140245	          9.74461492	          0.68907507	
          6.93000000	         -0.16609223	          9.74850447	          0.70326816	
          6.94000000	         -0.17009640	          9.75186661	          0.71632193	
          6.95000000	         -0.17324586	          9.75493861	          0.72792864	
          6.96000000	         -0.17543463	          9.75794567	          0.73801322	
          6.97000000	         -0.17708494	          9.76111341	          0.74657508	
          6.98000000	         -0.17834433	          9.76434114	          0.75467580	
          6.99000000	         -0.18052322	          9.76741232	          0.76408437	
          7.00000000	         -0.18403903	          9.76995402	          0.77615104	
          7.01000000	         -0.19032790	          9.77133396	          0.79397781	
          7.02000000	         -0.20055239	          9.77097341	          0.82014343	
          7.03000000	         -0.21576202	          9.76833910	          0.85734716	
          7.04000000	         -0.23634682	          9.76314356	          0.90720620	
          7.05000000	         -0.26283181	          9.75526711	          0.97122572	
          7.06000000	         -0.29469600	          9.74483387	          1.04907640	
          7.07000000	         -0.33077589	          9.73197519	          1.13966487	
          7.08000000	         -0.37101673	          9.71702593	          1.24074839	
          7.09000000	         -0.41455633	          9.70013534	          1.34966258	
          7.10000000	         -0.46054581	          9.68149125	          1.46271919	
          7.11000000	         -0.50805758	          9.66120318	          1.57608662	
          7.12000000	         -0.55622854	          9.63929713	          1.68616853	
          7.13000000	         -0.60409011	          9.61580271	          1.78926534	
          7.14000000	         -0.65059778	          9.59063107	          1.88254752	
          7.15000000	         -0.69438783	          9.56366963	          1.96362285	
          7.16000000	         -0.73429178	          9.53475946	          2.03113640	
          7.17000000	         -0.76824836	          9.50374194	          2.08391372	
          7.18000000	         -0.79456613	          9.47048863	          2.12161184	
          7.19000000	         -0.81181166	          9.43494644	          2.14438829	
          7.20000000	         -0.81848129	          9.39719494	          2.15239684	
          7.21000000	         -0.81376979	          9.35739835	          2.14630047	
          7.22000000	         -0.79733714	          9.31580477	          2.12688092	
          7.23000000	         -0.76855576	          9.27269514	          2.09470643	
          7.24000000	         -0.72813386	          9.22830050	          2.05116235	
          7.25000000	         -0.67661532	          9.18292647	          1.99712883	
          7.26000000	         -0.61457385	          9.13696193	          1.93331529	
          7.27000000	         -0.54312904	          9.09095084	          1.86029251	
          7.28000000	         -0.46365071	          9.04560103	          1.77840922	
          7.29000000	         -0.37791937	          9.00181516	          1.68768979	
          7.30000000	         -0.28791144	          8.96060719	          1.58798888	
          7.31000000	         -0.19546445	          8.92304926	          1.47910738	
          7.32000000	         -0.10236320	          8.89020388	          1.36101882	
          7.33000000	         -0.01012529	          8.86307602	          1.23403334	
          7.34000000	          0.08010382	          8.84253440	          1.09892330	
          7.35000000	          0.16756094	          8.82925682	          0.95699090	
          7.36000000	          0.25181224	          8.82361475	          0.81015195	
          7.37000000	          0.33248383	          8.82565761	          0.66077866	
          7.38000000	          0.40925366	          8.83502862	          0.51171090	
          7.39000000	          0.48146399	          8.85108696	          0.36587051	
          7.40000000	          0.54835563	          8.87284406	          0.22635052	
          7.41000000	          0.60901921	          8.89904043	          0.09616865	
          7.42000000	          0.66222803	          8.92828394	         -0.02207285	
          7.43000000	          0.70658278	          8.95913123	         -0.12635916	
          7.44000000	          0.74067979	          8.99015154	         -0.21532413	
          7.45000000	          0.76376677	          9.02013183	         -0.28855772	
          7.46000000	          0.77598867	          9.04817306	         -0.34655088	
          7.47000000	          0.77697806	          9.07330002	         -0.38960788	
          7.48000000	          0.76697685	          9.09489151	         -0.41879481	
          7.49000000	          0.74744971	          9.11275678	         -0.43595834	
          7.50000000	          0.72040936	          9.12695858	         -0.44318408	
          7.51000000	          0.68831537	          9.13780301	         -0.44274496	
          7.52000000	          0.65399215	          9.14604950	         -0.43728016	
          7.53000000	          0.61997864	          9.15223563	         -0.42879970	
          7.54000000	          0.58829914	          9.15678814	         -0.41887106	
          7.55000000	          0.56032811	          9.15991103	         -0.40856826	
          7.56000000	          0.53678806	          9.16160074	         -0.39852308	
          7.57000000	          0.51780083	          9.16168402	         -0.38899137	
          7.58000000	          0.50314100	          9.15987604	         -0.37994411	
          7.59000000	          0.49266457	          9.15589173	         -0.37126298	
          7.60000000	          0.48664535	          9.14907263	         -0.36221074	
          7.61000000	          0.48266668	          9.13963925	         -0.35309957	
          7.62000000	          0.48106315	          9.12750085	         -0.34375005	
          7.63000000	          0.48224322	          9.11245826	         -0.33376164	
          7.64000000	          0.48617222	          9.09439965	         -0.32275975	
          7.65000000	          0.49283458	          9.07332151	         -0.31052701	
          7.66000000	          0.50208728	          9.04918409	         -0.29692860	
          7.67000000	          0.51300627	          9.02161169	         -0.28144483	
          7.68000000	          0.52503422	          8.99033699	         -0.26403141	
          7.69000000	          0.53724805	          8.95504978	         -0.24468880	
          7.70000000	          0.54889650	          8.91576354	         -0.22389192	
          7.71000000	          0.55919114	          8.87277553	         -0.20238948	
